<svg xmlns="http://www.w3.org/2000/svg" xmlns:xlink="http://www.w3.org/1999/xlink" width="149" height="138" viewBox="0 0 149.359 138.421"><path d="M101.713 136.626l-5.059-11.224 8.717-10.917-7.031.894-5.146 9.997 5.838 8.506c-1.108-.658-2.512-.998-4.138-.3-2.563 1.1-3.56 3.49.027 4.638 2.717.87 6.792-1.594 6.792-1.594zM114.496 136.626s.177.256 0 0l-.928-22.413-2.987-1.691-1.895 2.153 4.752 20.548c-1.054-1.301-2.881-2.876-5.76-1.641-2.563 1.1-3.56 3.49.027 4.638 2.855.915 6.791-1.594 6.791-1.594zM52.557 107.713c-2.156 0-4.885-.781-6.932-1.911-5.035-2.777-6.885-6.265-6.975-6.389l.806-.592c.021.028 2.162 2.881 6.987 5.543 4.754 2.623 11.88.582 11.951.561l.281 1.96c-.185.055-2.884.828-6.118.828z"/><ellipse fill="#F66" cx="77.559" cy="97.365" rx="11.323" ry="8.437"/><path fill="#FFF" d="M84.386 116.273s3.617 3.359 7.751 2.713c4.134-.646 7.622-4.005 7.622-4.005s2.787 8.352 7.881 6.46c4.522-1.679 1.163-7.881 1.163-7.881s5.038 3.058 8.44 1.895c5.426-1.854 6.804-6.158 6.804-6.158s4.263 6.976 9.043 4.134 2.713-15.115 2.713-15.115 8.785 1.421 8.656-5.297c-.129-6.718-3.488-12.919-3.488-12.919s5.426 2.713 6.072-2.584c.646-5.297-6.33-9.043-6.33-9.043l1.809-3.488s5.297 1.938 5.555-1.55-1.682-7.889-4.651-10.206-13.048-3.101-13.048-3.101l-64.983 3.488s-7.286 3.101-7.906 8.01 2.222 6.976 2.222 6.976-4.78 4.909-2.971 8.139 2.584 2.196 2.584 2.196-2.842 4.263.129 5.038c2.971.775 18.733.646 18.733.646s-1.809 9.819-8.01 11.627-12.687-5.426-12.687-5.426-3.84 1.729-2.558 8.139c.646 3.23 2.558 3.747 2.558 3.747s-2.687 4.909.543 8.268c3.23 3.359 8.785 2.325 8.785 2.325s1.163 5.297 7.493 6.33 10.076-3.358 10.076-3.358z"/><path d="M69.253 66.147s-2.842 3.23-.904 8.268c1.938 5.038 7.751 5.684 11.627 4.005 3.876-1.679 5.943-5.038 5.297-7.881-.646-2.842-5.038-4.78-8.139-5.297-3.101-.516-7.881.905-7.881.905z"/><ellipse fill="#FFF" cx="72.482" cy="70.267" rx="2.067" ry="1.923"/><ellipse fill="#FFF" cx="75.793" cy="72.824" rx="1.329" ry="1.237"/><path d="M89.988 71.896s-3.101-5.361-9.237-7.235c-6.137-1.873-8.01-.711-10.787-2.519s-6.653-5.168-7.364-2.907c-.711 2.261 1.545 7.124 5.778 8.375 4.234 1.25 11.264-.744 12.76-.3 3.488 1.033 8.85 4.586 8.85 4.586z"/><path fill="#D5D0D6" d="M96.811 55.454s4.05 2.818 4.574 5.261c.523 2.443-.037 4.684-.037 4.684s5.548-1.324 9.538 2.316c4.435 4.046 5.833 6.346 3.373 9.374-2.861 3.52-9.247.523-11.864-2.792-2.617-3.315-2.966-7.087-2.966-7.087l-2.617 1.853s5.409 5.847 4.013 9.902c-1.396 4.055-4.013 6.498-4.013 6.498s7.153.698 5.932 5.234-4.885 4.187-4.885 4.187 3.408 1.607 2.361 4.747c-1.047 3.14-4.804 2.581-4.804 2.581s3.254 5.529.637 8.669c-2.617 3.14-9.361.403-9.361.403l-2.305 4.988s4.922 3.91 8.761 2.863 6.822-4.65 6.822-4.65-.677-4.311 1.727-5.469c4.965-2.391 7.055 6.489 6.148 3.506 0 0 6.653 5.193 11.562 1.963 2.888-1.9 5.146-4.771 5.146-4.771s-5.208-11.434.872-15.528c3.795-2.555 5.758-1.57 5.758-1.57s-2.463-7.235 1.745-10.643c4.13-3.345 7.502-1.221 7.502-1.221s6.313.677 6.63-1.745c1.007-7.709-6.107-9.945-6.107-9.945L142 64.7s5.234 2.812 5.932-.949c.698-3.762-1.413-8.195-4.013-9.868-2.798-1.801-8.375-3.4-8.375-3.4l-10.817 3.749s7.502 4.906 5.758 9.519c-1.745 4.613-6.598 4.592-10.348 1.436-4.406-3.708-6.052-8.195-6.052-8.195l-17.274-1.538z"/><path d="M23.937 113.544l1.033.646 19.637-18.732-11.368-6.848z"/><circle fill="#857589" cx="42.149" cy="86.899" r="9.463"/><path fill="none" stroke="#000" stroke-miterlimit="10" d="M40.086 80.773s2.986-1.235 5.814.764c2.498 1.766 2.541 4.662 2.541 4.662M39.548 83.676s2.247-.929 4.375.575c1.88 1.329 1.912 3.508 1.912 3.508M41.507 85.865l1.938-6.621M43.186 87.092l4.877-5.2M.123 126.765s4.633 1.171 7.751-2.067c2.239-2.325 1.234-6.315 5.454-9.157 2.647-1.783 7.034.889 8.843.372 1.41-.403 3.014-3.359 3.014-3.359"/><path fill="#FFD2B3" d="M149.24 34.883c-.674-9.682-10.976-12.469-12.708-19.138-.469-1.807-.579-3.004-.579-3.004l-26.667 1.095c-.565 3.986-.677 7.095-2.873 7.547-2.576.53-3.206-4.257-3.206-4.257l-24.355 3.943s-.027 4.9-2.519 7.613c-.89.969-2.553 1.081-3.014-.258-.436-1.264 1.165-3.273 1.165-3.273l-9.536-7.105s-3.714 3.155-4.591.431c-.667-2.071 3.214-2.742 3.214-2.742l1.072-8.093s-2.593-.649-2.337-2.679c.123-.973 1.844-2.286 1.454-3.705-.799-2.913-10.303-.974-16.968 8.09-5.598 7.614-8.057 19.105-2.239 32.126 7.116 15.925 33.306 20.515 72.75 16.218 29.095-3.172 32.665-12.345 31.937-22.809z"/><ellipse transform="rotate(-9.893 91.046 18.944)" fill="#857589" cx="91.039" cy="18.943" rx="12.371" ry="4.724"/><ellipse transform="rotate(-9.893 91.142 20.872)" cx="91.135" cy="20.87" rx="7.493" ry="2.861"/><ellipse transform="rotate(107.278 64.05 11.78)" fill="#857589" cx="64.05" cy="11.777" rx="4.053" ry="2.553"/><ellipse transform="rotate(30.227 70.341 20.927)" fill="#857589" cx="70.34" cy="20.928" rx="5.993" ry="2.983"/><ellipse transform="rotate(-1.559 122.709 13.298)" fill="#857589" cx="122.644" cy="13.293" rx="13.225" ry="4.43"/><ellipse transform="rotate(-2.144 122.756 15.014)" cx="122.684" cy="15.054" rx="8.102" ry="2.926"/><ellipse transform="rotate(32.027 69.872 22.052)" cx="69.866" cy="22.05" rx="3.522" ry="1.542"/><ellipse transform="scale(-1) rotate(-69.96 -16.452 90.092)" cx="63.039" cy="11.512" rx="2.245" ry="1.254"/><ellipse transform="scale(-1) rotate(-69.96 -55.522 129.711)" fill="#AF358D" cx="90.761" cy="38.851" rx="3.532" ry="1.974"/><path d="M37.537 54.473a.5.5 0 0 0-.704-.065c-.012.01-1.192.973-2.593 1.049-.709.034-1.347-.542-2.079-1.214-.6-.55-1.219-1.118-2-1.458-1.936-.843-3.629.484-3.699.541-.009.007-.013.018-.022.026a.517.517 0 0 0-.067.08.51.51 0 0 0-.048.076.47.47 0 0 0-.028.09.543.543 0 0 0-.017.098c0 .012-.006.023-.006.035l.29 9.299c-.826-1.398-2.305-3.048-4.701-3.048-.308 0-.626.028-.946.085-1.783.314-3.023 1.227-3.237 2.38-.14.757.1 1.902 2.034 3.063 1.031.619 2.209.933 3.501.933 2.163 0 3.889-.88 3.961-.917l.366-.189-.061-.208a.496.496 0 0 0 .138-.36l-.336-10.793c.405-.251 1.402-.741 2.479-.275.628.274 1.185.785 1.724 1.279.793.728 1.611 1.479 2.685 1.479.041 0 .083-.001.125-.004 1.738-.094 3.12-1.229 3.178-1.278a.503.503 0 0 0 .063-.704zM20.01 30.201a.5.5 0 0 0-.704-.065c-.012.01-1.192.973-2.593 1.049-.709.034-1.347-.542-2.079-1.214-.6-.55-1.219-1.118-2-1.458-1.936-.843-3.629.484-3.699.541-.009.007-.013.018-.022.026a.517.517 0 0 0-.067.08.51.51 0 0 0-.048.076.47.47 0 0 0-.028.09.543.543 0 0 0-.017.098c0 .012-.006.023-.006.035l.29 9.299c-.826-1.398-2.305-3.048-4.701-3.048-.308 0-.626.028-.946.085-1.783.314-3.023 1.227-3.237 2.38-.14.757.1 1.902 2.034 3.063 1.031.619 2.209.933 3.501.933 2.163 0 3.889-.88 3.961-.917l.366-.189-.061-.208a.496.496 0 0 0 .138-.36l-.336-10.793c.405-.251 1.402-.741 2.479-.275.628.274 1.185.785 1.724 1.279.793.728 1.611 1.479 2.685 1.479.041 0 .083-.001.125-.004 1.738-.094 3.12-1.229 3.178-1.278a.501.501 0 0 0 .063-.704z"/><defs><path id="a" d="M47.987 7.832c2.964 2.547 3.911 7.89 2.275 11.111-1.626 3.2-5.583 8.834-2.275 9.868 3.308 1.034 4.686 3.101 4.686 4.479 0 1.378-1.521 8.957 1.995 9.302 3.517.345 7.038-8.132 14.369-5.34 5.426 2.067 5.426 7.493 7.192 9.474 1.155 1.296 2.943-.603 6.158-2.325 3.215-1.723 5.687.824 7.601 2.153 3.596 2.498 5.258-9.672 12.467-11.097 8.354-1.65 11.93 4.996 15.821 6.554 5.538 2.217 4.368-6.568 10.275-9.152 3.678-1.609 7.105-.273 10.766.947 5.168 1.723 7.104-6.203 7.104-6.203s3.318 4.395 2.902 9.821c-.239 3.117-.008 15.193-23.093 18.965-23.085 3.773-48.493 2.826-55.814 1.092-7.389-1.75-19.293-4.382-24.574-13.588-4.585-7.991-5.984-17.594-3.279-26.156 2.703-8.563 5.424-9.905 5.424-9.905z"/></defs><use xlink:href="#a" overflow="visible" fill="#AF358D"/><clipPath id="b"><use xlink:href="#a" overflow="visible"/></clipPath><path clip-path="url(#b)" fill="#AF358D" d="M149.24 34.883c-.674-9.682-10.976-12.469-12.708-19.138-.469-1.807-.579-3.004-.579-3.004l-26.667 1.095c-.565 3.986-.677 7.095-2.873 7.547-2.576.53-3.206-4.257-3.206-4.257l-24.355 3.943s-.027 4.9-2.519 7.613c-.89.969-2.553 1.081-3.014-.258-.436-1.264 1.165-3.273 1.165-3.273l-9.536-7.105s-3.714 3.155-4.591.431c-.667-2.071 3.214-2.742 3.214-2.742l1.072-8.093s-2.593-.649-2.337-2.679c.123-.973 1.844-2.286 1.454-3.705-.799-2.913-10.303-.974-16.968 8.09-5.598 7.614-8.057 19.105-2.239 32.126 7.116 15.925 33.306 20.515 72.75 16.218 29.095-3.172 32.665-12.345 31.937-22.809z"/><path fill="none" d="M61.883 19.339a13.02 13.02 0 0 1-.113-.539 3.446 3.446 0 0 1-1.414-.324c-.046-.021-.083-.058-.127-.081.008.028.007.053.016.081.267.826.895 1.006 1.638.863zM73.207 28.423c.462 1.339 2.124 1.228 3.015.258a7.416 7.416 0 0 0 1.096-1.598c-.813-.457-.787-.824-.787-.824l-2.067 1.882s-.507-.037-1.291-.145c-.013.157-.008.303.034.427zM106.302 21.382a2.15 2.15 0 0 0 1.317-.84 9.682 9.682 0 0 1-1.764-1.358l-.363 1.687s-.008.18-.066.482c.264.079.555.095.876.029z"/><path opacity=".2" d="M58.368 3.712c-.37 3.457-1.729 12.78 1.861 14.682-.537-2.005 3.23-2.661 3.23-2.661s-.99-1.48-.99-3.956c0-1.156 2.061-4.137 2.061-4.137s-2.593-.649-2.337-2.679c.123-.973 1.844-2.286 1.454-3.705-.237-.862-1.248-1.287-2.711-1.24-1.256.937-2.407 2.188-2.568 3.696zM105.427 21.352c-1.848-.559-2.331-4.227-2.331-4.227s-4.523 3.249-11.961 4.15c-6.392.774-12.394-.207-12.394-.207s-.022 3.326-1.423 6.015c1.277.718 4.628 1.658 13.444 1.753 12.298.133 14.332-5.745 14.665-7.484z"/><path opacity=".2" d="M117.191 57.69c29.096-3.17 32.666-12.342 31.938-22.807-.674-9.682-10.976-12.469-12.708-19.138-.469-1.807-.579-3.004-.579-3.004s-4.203 2.732-13.158 3.596c-6.458.623-13.509-2.501-13.509-2.501-.42 2.966-.591 5.445-1.556 6.706.859.528 1.931 1.044 3.291 1.508 8.333 2.846 18.562 2.763 18.562 2.763s5.105-.059 8.772 4.107c3.667 4.167 12.667 19.667-38.333 25.118-39.454 4.217-53.664-12.709-58.077-20.59a39.125 39.125 0 0 0 2.609 8.024c7.113 15.925 33.304 20.514 72.748 16.218z"/><path opacity=".2" d="M73.173 27.997c.118-1.44 2.346-4.052 2.346-4.052s-2.556.385-6.443-1.895c-2.486-1.459-3.167-5.09-3.167-5.09s-2.32 2.052-4.026 2.379c.346 1.512 1.159 3.819 3.064 5.556 2.225 2.03 6.189 2.818 8.226 3.102z"/><g><path d="M116.975 88.585c.857 1.636 1.249 4.07 1.062 6.147-.46 5.109-2.815 8.131-2.888 8.257l-.845-.337c.017-.029 1.694-2.977 2.134-7.874.434-4.824-4.205-9.286-4.252-9.33l1.625-1.123c.122.116 1.879 1.806 3.164 4.26z"/><path fill="none" stroke="#000" stroke-linecap="round" stroke-miterlimit="10" d="M114.554 102.652l-5.641 1.281M114.946 102.765l-4.331 4.309M115.149 102.455l-.403 5.978"/></g></svg>