<svg xmlns="http://www.w3.org/2000/svg" width="1440.334" height="254.163" viewBox="254.168 251.532 1440.334 254.163"><path fill="#ED1B34" d="M1567.413 251.532c-70.024 0-126.816 56.632-127.088 126.593l.019-.005 93.483-46.466a10.436 10.436 0 0 1-1.488-1.203 1.405 1.405 0 0 1-.42-1.136c.038-.422.266-.805.618-1.045a127.805 127.805 0 0 0 21.241-17.99 90.158 90.158 0 0 1 3.542-3.536c.005-.006.017-.011.021-.017a10.424 10.424 0 0 1 4.926-2.604c5.99-1.329 20.139-4.605 29.383-7.83a21.061 21.061 0 0 1 11.938-.596c.563.135 1.119.295 1.682.447l31.215-15.514a.705.705 0 0 1 1.021.632v10.039a.711.711 0 0 1-.419.645l-19.659 8.856a61.948 61.948 0 0 1 8.048 4.904l14.678-6.082a.71.71 0 0 1 .772.154l7.005 7.005a.696.696 0 0 1 .188.651.696.696 0 0 1-.44.51l-13.657 5.064c8.941 9.121 14.193 20.431 15.997 28.134 7.871 30.169-.955 97.428-40.912 157.537v.006c0 .006 0 .012-.006.018 49.716-17.254 85.402-64.496 85.402-120.083-.002-70.188-56.905-127.088-127.09-127.088zm46.545 120.308a145.673 145.673 0 0 1-24.479-20.721 10.586 10.586 0 0 0-7.684-3.309h-27.32c-3.146 0-6.184-.709-8.941-1.991l-105.046 38.954-.016.002c2.195 45.994 28.837 85.574 67.211 106.045.006-.004.011-.01.011-.016 54.404-13.363 96.998-56.729 109.223-111.564a7.065 7.065 0 0 0-2.959-7.4zm-49.926-38.066h10.973a2.85 2.85 0 0 0 2.758-2.134 14.13 14.13 0 0 0 0-7.146 2.85 2.85 0 0 0-2.764-2.137h-5.411l-.018.008h-8.721a3.935 3.935 0 0 0-3.916 3.52c-.006 0-.006.003-.006.005-.145 1.346.343 3.147 1.374 5.006.132.176.271.353.419.519a7.156 7.156 0 0 0 5.312 2.359z"/><path fill="#FFF" d="M1128.483 427.232v-90.986l-25.754 4.479v124.849h25.754l61.585-91.351v91.351h25.754V337.366l-29.3 3.734zM690.115 361.255h41.062v104.319h26.124V361.255h39.377l7.463-22.77H690.115zM1293.276 338.485c-23.331 0-46.096 14.182-46.096 42.55 0 15.301 6.9 26.686 17.354 33.592 2.02 1.274 6.217 3.574 12.935 5.323-14.965 20.532-29.615 25.325-37.006 27.333l6.898 20.717c27.979-1.984 43.615-23.652 56.952-45.721h25.164v43.295h26.123V338.485h-62.324zm36.202 62.888h-37.326c-8.958 0-19.03-6.156-19.218-20.337 0-13.437 8.583-19.968 19.218-19.968h37.326v40.305zM489.362 398.542l41.745-57.442-25.754-4.854-38.44 53.56h-18.291v-53.56l-26.124 4.667v124.661h26.124v-52.442h20.155c12.318 22.772 31.54 53.93 59.159 54.68l7.463-22.766c-3.172-.936-5.969-2.057-8.771-3.357-18.284-9.238-28.49-27.249-37.266-43.147zM869.272 335.501c-40.31 0-63.45 26.123-63.45 61.392v9.896c0 35.457 23.141 61.773 63.45 61.773 39.561 0 62.893-26.316 62.893-61.773v-9.896c0-35.268-23.332-61.392-62.893-61.392zm36.02 71.288c0 20.343-9.707 37.138-36.019 37.138-26.874 0-36.576-16.795-36.576-37.138v-9.896c0-20.525 9.703-37.321 36.576-37.321 26.312 0 36.019 16.796 36.019 37.321v9.896zM582.434 427.238v-90.992l-25.754 4.479v124.849h25.754l61.585-91.351v91.351h25.754V337.366l-29.301 3.734z"/><path d="M1601.193 322.365c5.026 0 10.012-.896 14.728-2.642l31.756-11.777a.711.711 0 0 0 .446-.51.709.709 0 0 0-.192-.651l-7.005-7.005a.703.703 0 0 0-.768-.154l-54.828 22.739h15.863z"/><path fill="#FFF" d="M313.696 300.602c-33.961 0-57.663 23.514-57.85 54.117 0 25.572 18.291 48.154 44.044 52.445-11.947 17.911-26.129 32.285-45.723 37.507l7.651 23.141c32.654-1.119 51.689-32.66 67.929-58.971h30.79v56.733h26.504V300.602h-73.345zm46.842 83.418h-46.842c-16.608 0-29.113-11.754-29.113-29.301 0-17.91 12.505-29.108 29.113-29.108h46.842v58.409zM1020.244 336.058c-13.624 0-30.227 6.343-38.253 16.051v-13.624h-24.446v167.21h26.124V456.99c8.589 10.635 25.01 12.131 36.575 12.131 33.035 0 55.986-18.105 55.986-62.144v-9.146c0-45.534-25.567-61.773-55.986-61.773zm30.044 70.731c0 14.926-4.291 38.257-30.045 38.257-12.874 0-30.227-3.732-36.576-15.307v-51.32c6.72-9.327 19.035-18.66 36.576-18.66 23.516 0 30.045 19.78 30.045 38.071v8.959z"/><path d="M1649.952 340.857c.601 2.485.767 4.813.292 7.656-2.263 10.906-14.745 16.151-24.101 10.177a126.082 126.082 0 0 1-16.388-12.449 21.169 21.169 0 0 0-13.228-5.378l-23.553-.999c-10.432-.436-16.504-9.606-16.041-13.972v-.005a3.943 3.943 0 0 1 3.922-3.52h8.715l67.521-30.418a.706.706 0 0 0 .414-.645v-10.039a.714.714 0 0 0-.331-.602.715.715 0 0 0-.689-.03l-196.136 97.489c0 1.297-.017 1.688.033 3.591.027 1.072.083 2.531.109 3.061l105.047-38.954a21.152 21.152 0 0 0 8.939 1.991h27.315c2.906 0 5.686 1.2 7.688 3.309a145.447 145.447 0 0 0 24.475 20.721 7.057 7.057 0 0 1 2.957 7.399c-12.225 54.835-54.813 98.201-109.217 111.564 17.801 9.5 38.133 14.889 59.717 14.889 14.605 0 28.632-2.473 41.694-7.006v-.006c40.081-60.295 48.841-127.79 40.846-157.824z"/><path fill="#FFF" d="M1605.269 296.145l-71.442 35.511a10.734 10.734 0 0 1-1.488-1.205 1.405 1.405 0 0 1-.419-1.136c.038-.422.265-.805.618-1.045a127.596 127.596 0 0 0 21.24-17.99 94.613 94.613 0 0 1 3.547-3.536l.018-.017a10.484 10.484 0 0 1 4.926-2.604c5.99-1.329 20.139-4.605 29.389-7.83a21.043 21.043 0 0 1 11.933-.596c.564.136 1.122.296 1.678.448zm44.674 44.685c-.396-1.622-.976-3.31-1.688-5.249l.011-.002a63.343 63.343 0 0 0-14.259-22.563l-18.087 6.708a42.424 42.424 0 0 1-14.729 2.642h-15.863l40.14-16.649a61.502 61.502 0 0 0-8.054-4.907l-47.846 21.556h5.434c1.303 0 2.434.874 2.765 2.135.292 1.142.452 2.338.452 3.574 0 1.233-.16 2.43-.452 3.572a2.862 2.862 0 0 1-2.765 2.135h-10.966a7.133 7.133 0 0 1-5.737-2.882c2.929 5.152 8.361 8.699 14.673 8.963l23.553.999a21.17 21.17 0 0 1 13.227 5.378 126.092 126.092 0 0 0 16.389 12.449c9.354 5.974 21.838.729 24.1-10.177.475-2.853.309-5.186-.298-7.682z"/></svg>